<svg width="39" height="41" xmlns="http://www.w3.org/2000/svg">
 <!-- Generator: Sketch 41 (35326) - http://www.bohemiancoding.com/sketch -->
 <title>Group 2</title>
 <desc>Created with Sketch.</desc>

 <g>
  <title>background</title>
  <rect fill="none" id="canvas_background" height="43" width="41" y="-1" x="-1"/>
 </g>
 <g>
  <title>Layer 1</title>
  <g fill-rule="evenodd" fill="none" id="Page-1">
   <g fill="#27B7C1" id="Desktop-Home">
    <g id="Group-2">
     <path id="wanderlust" d="m45.59149,13.15643l4.556,-0.034l4.454,13.736l4.318,-13.736l4.454,0l4.386,13.736l4.352,-13.736l4.454,0l-6.596,18.19l-4.522,0l-4.352,-12.818l-4.318,12.818l-4.522,0l-6.664,-18.156zm44.39914,18.156l0,-2.21c-0.63467,0.79334 -1.45066,1.394 -2.448,1.802c-0.99734,0.408 -2.14199,0.612 -3.434,0.612c-1.26934,0 -2.38566,-0.24366 -3.349,-0.731c-0.96334,-0.48734 -1.70566,-1.16166 -2.227,-2.023c-0.52133,-0.86134 -0.782,-1.82466 -0.782,-2.89c0,-1.70001 0.60066,-3.03166 1.802,-3.995c1.20134,-0.96334 2.90133,-1.45633 5.1,-1.479l5.304,0l0,-0.476c0,-1.06534 -0.35133,-1.89266 -1.054,-2.482c-0.70267,-0.58934 -1.72266,-0.884 -3.06,-0.884c-1.72267,0 -3.52465,0.56666 -5.406,1.7l-1.598,-3.06c1.42801,-0.79334 2.72566,-1.36566 3.893,-1.717c1.16734,-0.35134 2.53299,-0.527 4.097,-0.527c2.35735,0 4.18766,0.56666 5.491,1.7c1.30334,1.13334 1.96634,2.71999 1.989,4.76l0.034,11.9l-4.352,0zm-1.564,-4.097c0.90667,-0.60067 1.41667,-1.343 1.53,-2.227l0,-1.632l-4.59,0c-1.17867,0 -2.04566,0.17566 -2.601,0.527c-0.55533,0.35134 -0.833,0.92366 -0.833,1.717c0,0.77067 0.289,1.38266 0.867,1.836c0.57801,0.45334 1.36566,0.68 2.363,0.68c1.26934,0 2.35733,-0.30033 3.264,-0.901zm27.36515,-12.376c1.20134,1.25801 1.802,2.96366 1.802,5.117l0,11.356l-4.454,0l0,-10.064c0,-1.26934 -0.36267,-2.27233 -1.088,-3.009c-0.72534,-0.73667 -1.71133,-1.105 -2.958,-1.105c-1.47334,0.02267 -2.635,0.52133 -3.485,1.496c-0.85001,0.97467 -1.275,2.22133 -1.275,3.74l0,8.942l-4.42,0l0,-18.19l4.42,0l0,3.4c1.24667,-2.33468 3.42265,-3.52467 6.528,-3.57c2.08534,0 3.72866,0.62899 4.93,1.887zm24.91714,-8.755l0,25.228l-4.42,0l0,-2.924c-0.65734,1.02001 -1.50166,1.79633 -2.533,2.329c-1.03134,0.53267 -2.22699,0.799 -3.587,0.799c-1.72268,0 -3.23566,-0.391 -4.539,-1.173c-1.30334,-0.782 -2.31766,-1.88133 -3.043,-3.298c-0.72534,-1.41667 -1.088,-3.04299 -1.088,-4.879c0,-1.81334 0.35699,-3.41699 1.071,-4.811c0.714,-1.39401 1.72266,-2.47633 3.026,-3.247c1.30334,-0.77067 2.79366,-1.156 4.471,-1.156c1.38267,0 2.59533,0.272 3.638,0.816c1.04267,0.544 1.904,1.32599 2.584,2.346l0,-10.03l4.42,0zm-5.865,20.179c0.96334,-1.03134 1.445,-2.36299 1.445,-3.995c0,-1.63201 -0.48166,-2.96366 -1.445,-3.995c-0.96334,-1.03134 -2.20433,-1.547 -3.723,-1.547c-1.51868,0 -2.754,0.51566 -3.706,1.547c-0.95201,1.03134 -1.43934,2.36299 -1.462,3.995c0.02266,1.63201 0.50999,2.96366 1.462,3.995c0.952,1.03134 2.18732,1.547 3.706,1.547c1.51867,0 2.75966,-0.51566 3.723,-1.547zm26.27714,-10.795c1.46201,1.65467 2.193,3.97798 2.193,6.97c0,0.58934 -0.01133,1.03133 -0.034,1.326l-13.43,0c0.29467,1.29201 0.901,2.30633 1.819,3.043c0.91801,0.73667 2.04566,1.105 3.383,1.105c0.92934,0 1.819,-0.17566 2.669,-0.527c0.85001,-0.35134 1.59233,-0.85566 2.227,-1.513l2.38,2.482c-0.90667,0.99734 -2.01166,1.768 -3.315,2.312c-1.30334,0.544 -2.74832,0.816 -4.335,0.816c-1.85867,0 -3.49633,-0.38533 -4.913,-1.156c-1.41667,-0.77067 -2.51033,-1.85299 -3.281,-3.247c-0.77067,-1.39401 -1.156,-2.99766 -1.156,-4.811c0,-1.81334 0.391,-3.42266 1.173,-4.828c0.78201,-1.40534 1.87566,-2.499 3.281,-3.281c1.40534,-0.782 3.00333,-1.173 4.794,-1.173c2.90135,0 5.08299,0.82733 6.545,2.482zm-1.853,5.338c-0.04533,-1.33734 -0.48733,-2.40266 -1.326,-3.196c-0.83867,-0.79334 -1.94933,-1.19 -3.332,-1.19c-1.292,0 -2.37433,0.391 -3.247,1.173c-0.87267,0.782 -1.411,1.85299 -1.615,3.213l9.52,0zm15.38014,-6.885c1.05401,-0.62334 2.28366,-0.94633 3.689,-0.969l0,4.284c-1.88134,-0.11333 -3.38299,0.323 -4.505,1.309c-1.122,0.986 -1.683,2.31766 -1.683,3.995l0,8.772l-4.42,0l0,-18.19l4.42,0l0,3.502c0.61201,-1.17867 1.445,-2.07966 2.499,-2.703zm7.56015,-7.837l4.42,0l0,25.228l-4.42,0l0,-25.228zm27.50114,7.038l0,18.19l-4.454,0l0,-3.366c-1.22401,2.35735 -3.33199,3.536 -6.324,3.536c-2.04001,0 -3.64933,-0.62333 -4.828,-1.87c-1.17867,-1.24667 -1.768,-2.94666 -1.768,-5.1l0,-11.39l4.454,0l0,10.098c0,1.26934 0.34566,2.26666 1.037,2.992c0.69134,0.72534 1.64899,1.088 2.873,1.088c1.40534,-0.02267 2.516,-0.52133 3.332,-1.496c0.816,-0.97467 1.224,-2.20999 1.224,-3.706l0,-8.976l4.454,0zm14.15614,3.706c-0.94067,-0.29467 -1.80766,-0.442 -2.601,-0.442c-0.748,0 -1.343,0.13033 -1.785,0.391c-0.442,0.26067 -0.663,0.663 -0.663,1.207c0,0.56667 0.27767,1.003 0.833,1.309c0.55534,0.306 1.43366,0.629 2.635,0.969c1.26934,0.38534 2.312,0.765 3.128,1.139c0.81601,0.374 1.52433,0.92933 2.125,1.666c0.60067,0.73667 0.901,1.70566 0.901,2.907c0,1.76801 -0.67999,3.128 -2.04,4.08c-1.36,0.952 -3.07132,1.428 -5.134,1.428c-1.40534,0 -2.77666,-0.221 -4.114,-0.663c-1.33734,-0.442 -2.47066,-1.071 -3.4,-1.887l1.53,-3.094c0.81601,0.70267 1.79066,1.25233 2.924,1.649c1.13334,0.39667 2.21,0.595 3.23,0.595c0.81601,0 1.46767,-0.14167 1.955,-0.425c0.48734,-0.28333 0.731,-0.70833 0.731,-1.275c0,-0.63467 -0.28333,-1.11067 -0.85,-1.428c-0.56667,-0.31733 -1.48466,-0.66866 -2.754,-1.054c-1.224,-0.36267 -2.22133,-0.71966 -2.992,-1.071c-0.77067,-0.35134 -1.43933,-0.884 -2.006,-1.598c-0.56667,-0.714 -0.85,-1.64899 -0.85,-2.805c0,-1.79068 0.65166,-3.15633 1.955,-4.097c1.30334,-0.94067 2.94099,-1.411 4.913,-1.411c1.20134,0 2.38566,0.17 3.553,0.51c1.16734,0.34 2.20433,0.816 3.111,1.428l-1.598,3.196c-0.884,-0.52134 -1.79633,-0.92933 -2.737,-1.224zm19.59615,13.362c-1.45068,0.884 -2.96933,1.326 -4.556,1.326c-1.56401,0 -2.84467,-0.459 -3.842,-1.377c-0.99734,-0.918 -1.496,-2.27232 -1.496,-4.063l0,-8.976l-2.55,0l-0.034,-3.23l2.584,0l0,-4.998l4.386,0l0,4.998l5.202,0l0,3.23l-5.202,0l0,8.194c0,0.83867 0.15866,1.43366 0.476,1.785c0.31733,0.35134 0.79333,0.527 1.428,0.527c0.68,0 1.54132,-0.24933 2.584,-0.748l1.02,3.332z"/>
     <g id="noun_992662_cc">
      <path id="Shape" d="m37.9854,19.39772l-5.69324,-2.44002l0,-5.03416c0,-0.58309 -0.47247,-1.05555 -1.05556,-1.05555l-4.22222,0c-0.58309,0 -1.05556,0.47246 -1.05556,1.05555l0,2.32011l-2.11111,-0.90482l0,-4.08373c0,-2.56036 -0.60546,-5.12494 -1.75053,-7.41549c-0.47162,-0.94198 -1.41867,-1.52718 -2.47169,-1.52718c-1.05302,0 -2.00007,0.5852 -2.47169,1.52718l-0.00042,0c-1.14465,2.29055 -1.75011,4.85513 -1.75011,7.41549l0,4.08373l-2.11111,0.90482l0,-2.32011c0,-0.58309 -0.47247,-1.05555 -1.05556,-1.05555l-4.22222,0c-0.58309,0 -1.05556,0.47246 -1.05556,1.05555l0,5.03416l-5.69324,2.44002c-0.38845,0.16635 -0.64009,0.54804 -0.64009,0.97027l0,4.22222c0,0.32004 0.14524,0.6232 0.3952,0.82333c0.18916,0.152 0.42264,0.23222 0.66036,0.23222c0.07642,0 0.15284,-0.00844 0.22884,-0.02533l9.38684,-2.08578l4.10654,0l0,2.11111c0,1.66905 0.25671,3.33049 0.74226,4.92185l-5.55011,3.69993c-0.29344,0.19549 -0.46993,0.52525 -0.46993,0.87822l0,2.11111c0,0.67514 0.65402,1.18898 1.31142,1.02389l7.13302,-1.78304l0,0.75915c0,0.58309 0.47247,1.05556 1.05556,1.05556c0.58309,0 1.05556,-0.47247 1.05556,-1.05556l0,-0.75915l7.13302,1.78304c0.6574,0.16509 1.31142,-0.34917 1.31142,-1.02389l0,-2.11111c0,-0.35297 -0.17649,-0.68273 -0.46993,-0.87822l-5.54969,-3.69993c0.48513,-1.59136 0.74184,-3.2528 0.74184,-4.92185l0,-2.11111l4.10654,0l9.38684,2.08578c0.076,0.01689 0.15242,0.02533 0.22884,0.02533c0.23772,0 0.4712,-0.08022 0.66036,-0.23222c0.24996,-0.20013 0.3952,-0.50329 0.3952,-0.82333l0,-4.22222c0,-0.42223 -0.25164,-0.80392 -0.64009,-0.97027zm-1.47102,3.87642l-8.2156,-1.82527c-0.07516,-0.01688 -0.15158,-0.02533 -0.22885,-0.02533l-4.22222,0l0,-5.78782l12.66667,5.42851l0,2.20991zm-33.77778,0l0,-2.21033l12.66667,-5.42851l0,5.78824l-4.22222,0c-0.07727,0 -0.15369,0.00845 -0.22885,0.02533l-8.2156,1.82527zm16.88889,-20.8506c0.24869,0 0.47247,0.13849 0.58351,0.36058c0.9994,1.9988 1.5276,4.23658 1.5276,6.47098l0,4.77955l0,8.44445l0,3.16666c0,2.67056 -0.74227,5.32169 -2.11111,7.60887c-1.36884,-2.28718 -2.11111,-4.93831 -2.11111,-7.60887l0,-3.16666l0,-8.44445l0,-4.77955c0,-2.2344 0.5282,-4.47218 1.52718,-6.47098c0.11189,-0.22251 0.33524,-0.36058 0.58393,-0.36058zm8.44444,10.55556l2.11112,0l0,3.07377l-2.11112,-0.90482l0,-2.16895zm-19,0l2.11112,0l0,2.16895l-2.11112,0.90482l0,-3.07377zm3.16667,22.7316l4.67189,-3.11474c0.29302,0.65023 0.62616,1.28229 0.99898,1.89114l-5.67087,1.41782l0,-0.19422zm14.77778,0l0,0.19422l-5.67087,-1.41782c0.37282,-0.60885 0.70638,-1.24091 0.99898,-1.89114l4.67189,3.11474z"/>
     </g>
    </g>
   </g>
  </g>
 </g>
</svg>